# xmcd
#
# Track frame offsets:
# 150
# 15240
# 32769
# 45435
# 57134
# 76993
# 90969
# 112966
# 123663
# 139885
# 153047
# 163149
# 179868
# 191126
# 204901
#
# Disc length: 3138 seconds
#
# Revision: 0
# Processed by: cddbd v1.5.2PL0 Copyright (c) Steve Scherf et al.
# Submitted via: plextools 3.10
#
DISCID=bb0c400f
DTITLE=Mr. Sax and The Giant - Lipstick Powder And Paint
DYEAR=2008
DGENRE=R&B
TTITLE0=Mr. Sax and The Giant - Lillie Mae
TTITLE1=Mr. Sax and The Giant - Too Late Old Man
TTITLE2=Mr. Sax and The Giant - Early Times
TTITLE3=Mr. Sax and The Giant - Ain't No Rocking No More
TTITLE4=Mr. Sax and The Giant - Let Me Go Home Whiskey
TTITLE5=Mr. Sax and The Giant - Open Up That Door
TTITLE6=Mr. Sax and The Giant - Dildo Boogie
TTITLE7=Mr. Sax and The Giant - Lipstick, Powder And Paint
TTITLE8=Mr. Sax and The Giant - Hey Little Girl
TTITLE9=Mr. Sax and The Giant - One Night
TTITLE10=Mr. Sax and The Giant - My Girl Josephine
TTITLE11=Mr. Sax and The Giant - Down With It
TTITLE12=Mr. Sax and The Giant - Sleazy Side Joint
TTITLE13=Mr. Sax and The Giant - The Hustle Is On
TTITLE14=Mr. Sax and The Giant - Would You Baby
EXTD=
EXTT0=
EXTT1=
EXTT2=
EXTT3=
EXTT4=
EXTT5=
EXTT6=
EXTT7=
EXTT8=
EXTT9=
EXTT10=
EXTT11=
EXTT12=
EXTT13=
EXTT14=
PLAYORDER=
